<svg width="76" height="76" viewBox="0 0 76 76" fill="none" xmlns="http://www.w3.org/2000/svg">
<circle cx="38" cy="38" r="38" fill="#6EF2C5"/>
<path d="M54.1167 39.8166C54.1167 46.0238 52.2343 51.6047 49.2389 55.6109C46.2437 59.617 42.1831 62 37.7833 62C33.3835 62 29.3229 59.617 26.3277 55.6109C23.3324 51.6047 21.45 46.0238 21.45 39.8166C21.45 33.6094 23.3324 28.0286 26.3277 24.0223C29.3229 20.0162 33.3835 17.6333 37.7833 17.6333C42.1831 17.6333 46.2437 20.0162 49.2389 24.0223C52.2343 28.0286 54.1167 33.6094 54.1167 39.8166Z" stroke="white" stroke-width="2"/>
<rect x="16.3332" y="19.4925" width="40.7333" height="23.1834" fill="#6EF2C5"/>
<path d="M26.6911 37.1032C30.4129 37.9643 34.2136 38.3728 38.0212 38.321C41.8287 38.3728 45.6294 37.9643 49.3513 37.1032C52.6267 36.2545 54.6507 34.8989 54.6507 33.2899C54.6507 16.9456 49.8457 13 45.0355 13C41.8322 13.0055 38.737 14.813 37.0529 15.7939C36.6306 16.0418 36.3113 16.2292 36.162 16.2843C35.1732 16.6811 33.7672 16.4496 32.2943 16.2071C31.2454 16.0035 30.1827 15.8911 29.1167 15.871C24.9606 15.9096 21.2732 18.4995 21.3917 33.2899C21.3917 34.943 23.4156 36.2601 26.6911 37.1032Z" fill="white"/>
<path d="M61.049 33.2679C59.4338 32.4536 57.7395 31.8325 55.9968 31.4163V33.2899C55.9968 36.4971 51.9952 37.9298 49.6468 38.536C45.8285 39.4313 41.9267 39.8547 38.018 39.7979C34.1026 39.8565 30.1937 39.433 26.3686 38.536C24.0202 37.9298 19.9929 36.4971 19.9929 33.2899C19.9929 33.2569 19.9929 33.2238 19.9929 33.1963C19.9929 32.6452 19.9929 32.028 19.9929 31.4219C18.2537 31.8386 16.5628 32.4595 14.951 33.2734C13.0609 34.2929 12 35.5272 12 36.9379C12 39.2358 15.09 41.1811 20.0392 42.4485C24.6743 43.6388 30.9934 44.3772 37.982 44.3772C44.9706 44.3772 51.3515 43.6443 55.9608 42.4705C60.9306 41.1866 64 39.2413 64 36.96C64 35.5272 62.9442 34.2873 61.049 33.2679Z" fill="white"/>
</svg>
